<svg xmlns="http://www.w3.org/2000/svg" viewBox="0 0 92.41 92.4"><defs><style>.cls-1{fill:#edcf54;}</style></defs><title>Ресурс 2</title><g id="Слой_2" data-name="Слой 2"><g id="Objects"><path class="cls-1" d="M88.21,42H75.57a29.56,29.56,0,0,0-1.83-6.85l10.94-6.31a4.2,4.2,0,1,0-4.2-7.28l-11,6.32a29.32,29.32,0,0,0-5-5l6.32-11a4.2,4.2,0,0,0-7.27-4.2L57.25,18.66a29.45,29.45,0,0,0-6.84-1.81V4.2a4.2,4.2,0,1,0-8.4,0V16.85a29.06,29.06,0,0,0-6.85,1.82L28.84,7.73a4.2,4.2,0,1,0-7.27,4.2l6.32,11a30,30,0,0,0-5,5L11.93,21.56a4.2,4.2,0,1,0-4.2,7.28l10.94,6.32A29,29,0,0,0,16.86,42H4.2a4.2,4.2,0,0,0,0,8.4H16.86a29,29,0,0,0,1.81,6.85L7.73,63.57a4.2,4.2,0,1,0,4.2,7.27l11-6.32a30.38,30.38,0,0,0,5,5l-6.32,11a4.21,4.21,0,0,0,1.53,5.74,4.35,4.35,0,0,0,2.1.56,4.19,4.19,0,0,0,3.64-2.1l6.32-11A29.06,29.06,0,0,0,42,75.55V88.2a4.2,4.2,0,1,0,8.4,0V75.55a29.45,29.45,0,0,0,6.84-1.81l6.32,10.94a4.2,4.2,0,0,0,7.27-4.2l-6.32-11a29.69,29.69,0,0,0,5-5l11,6.32a4.2,4.2,0,1,0,4.2-7.27L73.74,57.25a29.06,29.06,0,0,0,1.82-6.85H88.21a4.2,4.2,0,1,0,0-8.4Z"/></g></g></svg>