<svg xmlns="http://www.w3.org/2000/svg" viewBox="0 0 87.97 86.21"><defs><style>.cls-1{fill:#95bfce;}.cls-2{fill:#edcf54;}</style></defs><title>Ресурс 22</title><g id="Слой_2" data-name="Слой 2"><g id="Objects"><path class="cls-1" d="M76.71,58.14A34.43,34.43,0,0,1,46.87,6.46a4.31,4.31,0,0,0-.07-4.31A4.42,4.42,0,0,0,43,0a43.11,43.11,0,0,0,.16,86.21h0A43,43,0,0,0,80.44,64.6a4.31,4.31,0,0,0-3.73-6.46Z"/><path class="cls-2" d="M86.81,35.61l-2.52-.37A4.94,4.94,0,0,1,81,32.83l-1.13-2.28c-.56-1.14-1.48-1.14-2,0l-1.12,2.28a5,5,0,0,1-3.32,2.41l-2.52.37c-1.26.18-1.54,1.06-.63,2L72,39.33a4.94,4.94,0,0,1,1.27,3.9l-.43,2.51c-.22,1.26.53,1.8,1.66,1.2l2.25-1.18a5,5,0,0,1,4.1,0l2.25,1.18c1.13.6,1.88.06,1.66-1.2l-.43-2.51a5,5,0,0,1,1.27-3.9l1.82-1.77C88.35,36.67,88.07,35.79,86.81,35.61Z"/></g></g></svg>