<svg xmlns="http://www.w3.org/2000/svg" viewBox="0 0 100.41 78.31"><defs><style>.cls-1{fill:#edcf54;}.cls-2{fill:#bdcbd1;}</style></defs><title>Ресурс 6</title><g id="Слой_2" data-name="Слой 2"><g id="Objects"><path class="cls-1" d="M98,24.48H90.59a17.12,17.12,0,0,0-1.06-4l6.37-3.68a2.45,2.45,0,1,0-2.45-4.24l-6.38,3.68a17.17,17.17,0,0,0-2.92-2.92L87.83,7A2.45,2.45,0,0,0,83.59,4.5l-3.68,6.38a17.12,17.12,0,0,0-4-1.06V2.45a2.45,2.45,0,1,0-4.89,0V9.82a17.34,17.34,0,0,0-4,1.06L63.35,4.5A2.45,2.45,0,0,0,59.11,7l3.68,6.39c-.38.3-.73.63-1.09,1a27.73,27.73,0,0,1,9.88,20,24.28,24.28,0,0,1,13.36,5.5,17.2,17.2,0,0,0,2.13-2.22l6.38,3.69a2.5,2.5,0,0,0,1.23.33,2.45,2.45,0,0,0,1.22-4.57l-6.37-3.69a17.12,17.12,0,0,0,1.06-4H98a2.45,2.45,0,1,0,0-4.9Z"/><path class="cls-2" d="M69.46,38.93a17.87,17.87,0,0,0-2.85.22,22.79,22.79,0,0,0,.31-3.63,23.08,23.08,0,0,0-46.14-1,21.9,21.9,0,0,0,1.14,43.77H69.46a19.69,19.69,0,1,0,0-39.38Z"/></g></g></svg>