<svg xmlns="http://www.w3.org/2000/svg" viewBox="0 0 99.29 78.53"><defs><style>.cls-1{fill:#edcf54;}.cls-2{fill:#95bfce;}.cls-3{fill:#bdcbd1;}</style></defs><title>Ресурс 16</title><g id="Слой_2" data-name="Слой 2"><g id="Objects"><path class="cls-1" d="M98.76,16.25l-1.15-.16A2.27,2.27,0,0,1,96.1,15l-.52-1.05c-.25-.52-.68-.52-.93,0L94.13,15a2.29,2.29,0,0,1-1.51,1.1l-1.15.16c-.58.09-.71.49-.29.9L92,18a2.25,2.25,0,0,1,.58,1.78l-.2,1.15c-.09.57.25.82.76.55l1-.54a2.26,2.26,0,0,1,1.87,0l1,.54c.51.27.85,0,.76-.55l-.2-1.15A2.25,2.25,0,0,1,98.22,18l.83-.8C99.47,16.74,99.34,16.34,98.76,16.25Z"/><path class="cls-2" d="M94.15,26.54A15.72,15.72,0,0,1,80.53,3a2,2,0,0,0,0-2,2,2,0,0,0-1.73-1A19.52,19.52,0,0,0,62.12,9.25a29.66,29.66,0,0,1,13.17,22.8,25.9,25.9,0,0,1,12.67,5c.23-.12.47-.21.7-.34a19.81,19.81,0,0,0,7.2-7.23,2,2,0,0,0-1.71-2.95Z"/><path class="cls-3" d="M72.42,37.47a19.64,19.64,0,0,0-3,.23,22.33,22.33,0,0,0,.33-3.78,24.06,24.06,0,0,0-48.1-1,22.83,22.83,0,0,0,1.19,45.64H72.42a20.53,20.53,0,1,0,0-41.06Z"/></g></g></svg>