<svg xmlns="http://www.w3.org/2000/svg" viewBox="0 0 95.71 94.31"><defs><style>.cls-1{fill:#85c3d6;}.cls-2{fill:#97a7af;}</style></defs><title>Ресурс 13</title><g id="Слой_2" data-name="Слой 2"><g id="Objects"><path class="cls-1" d="M22,75.2a3.37,3.37,0,0,0-4.6,1.23L9.94,89.26a3.36,3.36,0,0,0,1.23,4.6,3.31,3.31,0,0,0,1.68.45,3.35,3.35,0,0,0,2.92-1.68L23.18,79.8A3.37,3.37,0,0,0,22,75.2Z"/><path class="cls-1" d="M42.59,75.2A3.38,3.38,0,0,0,38,76.43L30.57,89.26a3.37,3.37,0,0,0,1.24,4.6,3.31,3.31,0,0,0,1.68.45,3.36,3.36,0,0,0,2.92-1.68L43.82,79.8A3.37,3.37,0,0,0,42.59,75.2Z"/><path class="cls-2" d="M74.56,28.46a18.39,18.39,0,0,0-3.06.24,23.86,23.86,0,0,0,.34-3.9,24.78,24.78,0,0,0-49.53-1.06,23.52,23.52,0,0,0,1.23,47h51a21.14,21.14,0,1,0,0-42.28ZM39.11,52.21,31.7,65.05a3.36,3.36,0,0,1-2.92,1.68,3.41,3.41,0,0,1-1.68-.45,3.37,3.37,0,0,1-1.23-4.6l7.41-12.84a3.37,3.37,0,0,1,5.83,3.37Zm20.64,0L52.34,65.05a3.37,3.37,0,0,1-5.84-3.37l7.41-12.84a3.37,3.37,0,0,1,5.84,3.37Zm20.63,0L73,65.05a3.35,3.35,0,0,1-2.92,1.68,3.41,3.41,0,0,1-1.68-.45,3.37,3.37,0,0,1-1.23-4.6l7.41-12.84a3.37,3.37,0,1,1,5.83,3.37Z"/><path class="cls-1" d="M63.22,75.2a3.37,3.37,0,0,0-4.6,1.23L51.21,89.26a3.36,3.36,0,0,0,1.23,4.6,3.32,3.32,0,0,0,1.69.45,3.38,3.38,0,0,0,2.92-1.68L64.46,79.8A3.37,3.37,0,0,0,63.22,75.2Z"/></g></g></svg>