<svg xmlns="http://www.w3.org/2000/svg" viewBox="0 0 96.15 94.75"><defs><style>.cls-1{fill:#7d8a8e;}.cls-2{fill:#85c3d6;}.cls-3{fill:#44768c;}</style></defs><title>Ресурс 14</title><g id="Слой_2" data-name="Слой 2"><g id="Objects"><path class="cls-1" d="M74.9,28.59a18.43,18.43,0,0,0-3.07.24,24,24,0,0,0,.34-3.92,24.89,24.89,0,0,0-49.76-1.06A23.61,23.61,0,0,0,17,70.09l5.17-9A9.36,9.36,0,0,1,27,57a9.43,9.43,0,0,1,1.11-6.29L30.86,46A9.43,9.43,0,0,1,48.48,51.4L51.59,46a9.52,9.52,0,0,1,8.21-4.74,9.46,9.46,0,0,1,9.4,10.4,8.35,8.35,0,0,1,.42-1L72.32,46a9.47,9.47,0,0,1,17.36,2.29,9.39,9.39,0,0,1-1,7.18L86,60.18a9.49,9.49,0,0,1-7.19,4.69,9.5,9.5,0,0,1,.57,5.71,21.23,21.23,0,0,0-4.5-42Z"/><path class="cls-2" d="M34.67,58.38a3.32,3.32,0,0,0,1.69.45,3.38,3.38,0,0,0,2.93-1.69L42,52.45a3.38,3.38,0,1,0-5.86-3.38l-2.71,4.69A3.38,3.38,0,0,0,34.67,58.38Z"/><path class="cls-3" d="M32,62.92a3.39,3.39,0,0,0-4.62,1.25l-6,10.4a3.39,3.39,0,0,0,1.24,4.63,3.32,3.32,0,0,0,1.69.45A3.39,3.39,0,0,0,27.27,78l6-10.41A3.4,3.4,0,0,0,32,62.92Z"/><path class="cls-2" d="M20,83.74A3.39,3.39,0,0,0,15.4,85l-2.71,4.69a3.38,3.38,0,1,0,5.86,3.39l2.71-4.69A3.4,3.4,0,0,0,20,83.74Z"/><path class="cls-3" d="M61.49,47.83a3.37,3.37,0,0,0-4.62,1.24L48.07,64.3a3.37,3.37,0,0,0,1.24,4.62,3.24,3.24,0,0,0,1.69.46,3.4,3.4,0,0,0,2.93-1.69l8.8-15.24A3.38,3.38,0,0,0,61.49,47.83Z"/><path class="cls-3" d="M46.84,73.2a3.37,3.37,0,0,0-4.62,1.24l-8.8,15.23a3.38,3.38,0,0,0,1.24,4.62,3.33,3.33,0,0,0,1.69.46,3.38,3.38,0,0,0,2.93-1.69l8.8-15.24A3.38,3.38,0,0,0,46.84,73.2Z"/><path class="cls-2" d="M80.75,57.14l2.71-4.69a3.38,3.38,0,1,0-5.86-3.38l-2.71,4.69a3.39,3.39,0,0,0,1.24,4.62,3.32,3.32,0,0,0,1.69.45A3.37,3.37,0,0,0,80.75,57.14Z"/><path class="cls-3" d="M71.88,65.73A3.39,3.39,0,0,0,67.26,67l-2.77,4.8a3.37,3.37,0,0,0,1.24,4.62,3.32,3.32,0,0,0,1.69.45,3.37,3.37,0,0,0,2.93-1.69l2.77-4.8A3.37,3.37,0,0,0,71.88,65.73Z"/><path class="cls-2" d="M61.48,83.74A3.39,3.39,0,0,0,56.86,85l-2.71,4.69a3.4,3.4,0,0,0,1.24,4.63,3.45,3.45,0,0,0,1.69.45A3.38,3.38,0,0,0,60,93.06l2.71-4.69A3.4,3.4,0,0,0,61.48,83.74Z"/></g></g></svg>