<svg xmlns="http://www.w3.org/2000/svg" viewBox="0 0 98.4 100.41"><defs><style>.cls-1{fill:#edcf54;}.cls-2{fill:#7d8a8e;}.cls-3{fill:#85c3d6;}</style></defs><title>Ресурс 8</title><g id="Слой_2" data-name="Слой 2"><g id="Objects"><path class="cls-1" d="M96,24H88.77a16.57,16.57,0,0,0-1-3.91L94,16.48a2.4,2.4,0,0,0-2.4-4.16l-6.25,3.61a16.83,16.83,0,0,0-2.86-2.86l3.6-6.26a2.4,2.4,0,1,0-4.15-2.4l-3.61,6.25a17.07,17.07,0,0,0-3.91-1V2.4a2.4,2.4,0,0,0-4.8,0V9.62a17.07,17.07,0,0,0-3.91,1L62.08,4.41a2.4,2.4,0,0,0-4.16,2.4l3.61,6.26a13.57,13.57,0,0,0-1.06.95,27.16,27.16,0,0,1,9.68,19.62A23.81,23.81,0,0,1,83.24,39a17.86,17.86,0,0,0,2.09-2.17l6.25,3.61a2.4,2.4,0,0,0,3.28-.88A2.4,2.4,0,0,0,94,36.31l-6.25-3.6a16.53,16.53,0,0,0,1-3.92H96A2.4,2.4,0,1,0,96,24Z"/><path class="cls-2" d="M68.06,38.15a18.52,18.52,0,0,0-2.79.21,21.8,21.8,0,0,0,.31-3.55,22.61,22.61,0,0,0-45.21-1,21.46,21.46,0,0,0,1.12,42.89H68.06a19.3,19.3,0,1,0,0-38.59Z"/><path class="cls-3" d="M25.39,80.86a3.08,3.08,0,0,0-3.85,2L17.35,96.42a3.08,3.08,0,0,0,2,3.85,3.19,3.19,0,0,0,.91.14,3.09,3.09,0,0,0,2.94-2.17l4.19-13.53A3.08,3.08,0,0,0,25.39,80.86Z"/><path class="cls-3" d="M44.23,80.86a3.08,3.08,0,0,0-3.85,2L36.19,96.42a3.08,3.08,0,0,0,2,3.85,3.19,3.19,0,0,0,.91.14,3.09,3.09,0,0,0,2.94-2.17l4.19-13.53A3.08,3.08,0,0,0,44.23,80.86Z"/><path class="cls-3" d="M63.06,80.86a3.08,3.08,0,0,0-3.84,2L55,96.42a3.08,3.08,0,0,0,2,3.85,3.19,3.19,0,0,0,.91.14,3.09,3.09,0,0,0,2.94-2.17l4.18-13.53A3.07,3.07,0,0,0,63.06,80.86Z"/></g></g></svg>