<svg xmlns="http://www.w3.org/2000/svg" viewBox="0 0 97.09 100.41"><defs><style>.cls-1{fill:#85c3d6;}.cls-2{fill:#edcf54;}.cls-3{fill:#95bfce;}.cls-4{fill:#7d8a8e;}</style></defs><title>Ресурс 18</title><g id="Слой_2" data-name="Слой 2"><g id="Objects"><path class="cls-1" d="M26.4,80.12a3.19,3.19,0,0,0-4,2.11l-4.35,14a3.2,3.2,0,0,0,2.11,4,3.4,3.4,0,0,0,.94.14,3.19,3.19,0,0,0,3.05-2.25l4.35-14A3.19,3.19,0,0,0,26.4,80.12Z"/><path class="cls-1" d="M46,80.12a3.19,3.19,0,0,0-4,2.11l-4.35,14a3.2,3.2,0,0,0,2.11,4,3.4,3.4,0,0,0,.94.14,3.19,3.19,0,0,0,3-2.25l4.35-14A3.19,3.19,0,0,0,46,80.12Z"/><path class="cls-1" d="M65.52,80.12a3.19,3.19,0,0,0-4,2.11l-4.35,14a3.2,3.2,0,0,0,2.11,4,3.4,3.4,0,0,0,.94.14,3.19,3.19,0,0,0,3.05-2.25l4.35-14A3.19,3.19,0,0,0,65.52,80.12Z"/><path class="cls-2" d="M96.56,15.89l-1.12-.16A2.23,2.23,0,0,1,94,14.66l-.51-1c-.25-.51-.66-.51-.91,0l-.5,1a2.25,2.25,0,0,1-1.48,1.07l-1.13.16c-.56.09-.69.47-.28.88l.81.79a2.18,2.18,0,0,1,.57,1.74l-.19,1.11c-.1.57.24.81.74.54l1-.52a2.17,2.17,0,0,1,1.83,0l1,.52c.5.27.83,0,.74-.54l-.19-1.11A2.21,2.21,0,0,1,96,17.56l.82-.79C97.25,16.36,97.13,16,96.56,15.89Z"/><path class="cls-3" d="M92.06,26A15.36,15.36,0,0,1,78.74,2.89a2,2,0,0,0,0-1.93A2,2,0,0,0,77,0,19.13,19.13,0,0,0,60.74,9.05,29,29,0,0,1,73.62,31.34,25.49,25.49,0,0,1,86,36.23c.22-.11.46-.2.68-.33a19.22,19.22,0,0,0,7-7.07A1.92,1.92,0,0,0,92.06,26Z"/><path class="cls-4" d="M70.8,36.64a17.46,17.46,0,0,0-2.9.23,22.53,22.53,0,0,0,.32-3.7,23.53,23.53,0,0,0-47-1,22.32,22.32,0,0,0,1.16,44.62H70.8a20.07,20.07,0,1,0,0-40.14Z"/></g></g></svg>