<svg xmlns="http://www.w3.org/2000/svg" viewBox="0 0 98.83 100.41"><defs><style>.cls-1{fill:#edcf54;}.cls-2{fill:#7d8a8e;}.cls-3{fill:#c9ac32;}</style></defs><title>Ресурс 10</title><g id="Слой_2" data-name="Слой 2"><g id="Objects"><path class="cls-1" d="M96.42,24.1H89.17a16.62,16.62,0,0,0-1-3.93l6.28-3.62A2.41,2.41,0,0,0,92,12.37L85.71,16a17.06,17.06,0,0,0-2.88-2.88l3.63-6.28a2.41,2.41,0,0,0-4.18-2.41l-3.62,6.28a16.61,16.61,0,0,0-3.93-1V2.41a2.41,2.41,0,0,0-4.82,0V9.67a16.74,16.74,0,0,0-3.93,1L62.36,4.44a2.41,2.41,0,0,0-4.18,2.4l3.63,6.29a13.71,13.71,0,0,0-1.07.95,27.26,27.26,0,0,1,9.72,19.71,23.93,23.93,0,0,1,13.15,5.42A17.41,17.41,0,0,0,85.71,37L92,40.65a2.41,2.41,0,1,0,2.41-4.17l-6.28-3.63a16.62,16.62,0,0,0,1-3.93h7.25a2.41,2.41,0,0,0,0-4.82Z"/><path class="cls-2" d="M68.37,38.32a17.55,17.55,0,0,0-2.81.22A21.09,21.09,0,0,0,65.87,35a22.71,22.71,0,0,0-45.41-1,21.56,21.56,0,0,0,1.12,43.09H25.4a7.31,7.31,0,0,1,.37-2.68l6.76-19.53A9.21,9.21,0,0,1,41,48.83h9.13a6.43,6.43,0,0,1,5.75,9.89L51.43,66.6h4.49A6.06,6.06,0,0,1,60.63,77l-.11.13h7.85a19.39,19.39,0,1,0,0-38.77Z"/><path class="cls-3" d="M55.92,71.54H45.83c-1.59,0-2.24-1.13-1.46-2.51l7.24-12.76c.78-1.37.13-2.5-1.46-2.5H41a4.34,4.34,0,0,0-3.82,2.72L30.44,76a1.93,1.93,0,0,0,1.94,2.73h7.2a1.75,1.75,0,0,1,1.73,2.64L33.53,99.16c-.63,1.45-.3,1.67.75.47L56.9,73.71C58,72.52,57.5,71.54,55.92,71.54Z"/></g></g></svg>