<svg xmlns="http://www.w3.org/2000/svg" viewBox="0 0 99.32 100.41"><defs><style>.cls-1{fill:#edcf54;}.cls-2{fill:#bdcbd1;}.cls-3{fill:#97a7af;}</style></defs><title>Ресурс 7</title><g id="Слой_2" data-name="Слой 2"><g id="Objects"><path class="cls-1" d="M96.9,24.22H89.61a17.28,17.28,0,0,0-1-3.95l6.3-3.64a2.42,2.42,0,0,0-2.42-4.2l-6.31,3.65a17.18,17.18,0,0,0-2.89-2.89l3.64-6.31a2.42,2.42,0,1,0-4.19-2.42l-3.64,6.3a17.42,17.42,0,0,0-4-1V2.42a2.42,2.42,0,1,0-4.84,0V9.71a16.8,16.8,0,0,0-4,1.06L62.66,4.46a2.42,2.42,0,1,0-4.19,2.42l3.64,6.31c-.37.3-.72.63-1.08,1A27.43,27.43,0,0,1,70.81,34,24,24,0,0,1,84,39.4a16.89,16.89,0,0,0,2.11-2.2l6.31,3.65a2.42,2.42,0,1,0,2.42-4.19L88.56,33a16.77,16.77,0,0,0,1-3.95h7.3a2.42,2.42,0,0,0,0-4.84Z"/><rect class="cls-2" x="28.81" y="92.77" width="7.64" height="7.64" rx="2.55" ry="2.55"/><rect class="cls-2" x="22.45" y="80.03" width="10.19" height="7.64" rx="2.55" ry="2.55"/><rect class="cls-2" x="46.64" y="92.77" width="10.19" height="7.64" rx="2.55" ry="2.55"/><rect class="cls-2" x="40.27" y="80.03" width="7.64" height="7.64" rx="2.55" ry="2.55"/><path class="cls-3" d="M68.7,38.51a17.46,17.46,0,0,0-2.81.22,22.42,22.42,0,0,0,.31-3.6,22.83,22.83,0,0,0-45.64-1,21.67,21.67,0,0,0,1.13,43.31h47a19.48,19.48,0,1,0,0-39ZM41.55,72.39A2.56,2.56,0,0,1,39,74.94H36.45a2.55,2.55,0,0,1-2.54-2.55V69.85a2.55,2.55,0,0,1,2.54-2.55H39a2.56,2.56,0,0,1,2.55,2.55Zm17.82,0a2.55,2.55,0,0,1-2.54,2.55H54.28a2.56,2.56,0,0,1-2.55-2.55V69.85a2.56,2.56,0,0,1,2.55-2.55h2.55a2.55,2.55,0,0,1,2.54,2.55Z"/><rect class="cls-2" x="58.1" y="80.03" width="7.64" height="7.64" rx="2.55" ry="2.55"/></g></g></svg>