<svg xmlns="http://www.w3.org/2000/svg" viewBox="0 0 97.08 100.41"><defs><style>.cls-1{fill:#edcf54;}.cls-2{fill:#95bfce;}.cls-3{fill:#bdcbd1;}.cls-4{fill:#97a7af;}</style></defs><title>Ресурс 17</title><g id="Слой_2" data-name="Слой 2"><g id="Objects"><path class="cls-1" d="M96.56,15.89l-1.12-.16A2.23,2.23,0,0,1,94,14.66l-.51-1c-.25-.51-.66-.51-.91,0l-.51,1a2.21,2.21,0,0,1-1.47,1.07l-1.13.16c-.56.08-.69.47-.28.88l.81.78a2.23,2.23,0,0,1,.57,1.74l-.19,1.12c-.1.57.23.81.73.54l1-.52a2.17,2.17,0,0,1,1.83,0l1,.52c.5.27.83,0,.74-.54l-.2-1.12A2.23,2.23,0,0,1,96,17.55l.81-.78C97.25,16.36,97.12,16,96.56,15.89Z"/><path class="cls-2" d="M92.05,26A15.36,15.36,0,0,1,78.73,2.89,1.91,1.91,0,0,0,78.7,1,1.94,1.94,0,0,0,77,0,19.13,19.13,0,0,0,60.73,9.05,29,29,0,0,1,73.62,31.34,25.32,25.32,0,0,1,86,36.23c.23-.11.46-.2.68-.33a19.25,19.25,0,0,0,7-7.07A1.92,1.92,0,0,0,92.05,26Z"/><path class="cls-3" d="M37,92.54H34.39a2.63,2.63,0,0,0-2.62,2.62v2.63a2.64,2.64,0,0,0,2.62,2.62H37a2.64,2.64,0,0,0,2.63-2.62V95.16A2.63,2.63,0,0,0,37,92.54Z"/><rect class="cls-3" x="22.59" y="79.43" width="10.49" height="7.87" rx="2.62" ry="2.62"/><path class="cls-3" d="M58,92.54H52.75a2.63,2.63,0,0,0-2.62,2.62v2.63a2.64,2.64,0,0,0,2.62,2.62H58a2.64,2.64,0,0,0,2.63-2.62V95.16A2.64,2.64,0,0,0,58,92.54Z"/><rect class="cls-3" x="40.95" y="79.43" width="7.87" height="7.87" rx="2.62" ry="2.62"/><path class="cls-4" d="M70.8,36.64a18.6,18.6,0,0,0-2.9.22,22.53,22.53,0,0,0,.32-3.7,23.53,23.53,0,0,0-47-1,22.32,22.32,0,0,0,1.16,44.62H70.8a20.07,20.07,0,1,0,0-40.14ZM39.64,71.56A2.63,2.63,0,0,1,37,74.18H34.39a2.63,2.63,0,0,1-2.62-2.62V68.94a2.63,2.63,0,0,1,2.62-2.62H37a2.63,2.63,0,0,1,2.63,2.62Zm18.35,0a2.63,2.63,0,0,1-2.62,2.62H52.75a2.63,2.63,0,0,1-2.62-2.62V68.94a2.63,2.63,0,0,1,2.62-2.62h2.62A2.63,2.63,0,0,1,58,68.94Z"/><rect class="cls-3" x="59.3" y="79.43" width="7.87" height="7.87" rx="2.62" ry="2.62"/></g></g></svg>